<svg width="24" height="24" xmlns="http://www.w3.org/2000/svg">
 <g>
  <rect fill="none" id="canvas_background" height="402" width="582" y="-1" x="-1"/>
 </g>
 <g>
  <path transform="rotate(89.71037292480469 20.500564575195312,12.527683258056639) " id="svg_1" fill="#00FF7F" d="m18.800565,12.027683l1.3,0l0,2.7l0.8,0l0,-2.7l1.3,0l-1.7,-1.7l-1.7,1.7z"/>
  <path stroke="null" id="svg_2" fill="#00FF7F" d="m15.299229,17.079096l-10.240472,0c-0.938059,0 -1.719774,-1 -1.719774,-2.2l0,-5.1c0,-1.2 0.781715,-2.2 1.719774,-2.2l10.318644,0c0.938059,0 1.719774,1 1.719774,2.2l0,5.1c-0.078172,1.2 -0.859887,2.2 -1.797946,2.2zm-10.240472,-8.5c-0.547201,0 -0.938059,0.5 -0.938059,1.2l0,5.1c0,0.7 0.390858,1.2 0.938059,1.2l10.318644,0c0.547201,0 0.938059,-0.5 0.938059,-1.2l0,-5.1c0,-0.7 -0.390858,-1.2 -0.938059,-1.2l-10.318644,0z"/>
 </g>
</svg>
