<svg width="24" height="24" viewBox="0 0 24 24" fill="none" xmlns="http://www.w3.org/2000/svg">
<path d="M3 5.7H4.3V8.4H5.1V5.7H6.4L4.7 4L3 5.7Z" fill="#CD5D67"/>
<path d="M10 5.7H11.3V8.4H12.1V5.7H13.4L11.7 4L10 5.7Z" fill="#CD5D67"/>
<path d="M17 5.7H18.3V8.4H19.1V5.7H20.4L18.7 4L17 5.7Z" fill="#CD5D67"/>
<path d="M18.3 19H5.2C4 19 3 18 3 16.8V11.7C3 10.5 4 9.5 5.2 9.5H18.4C19.6 9.5 20.6 10.5 20.6 11.7V16.8C20.5 18 19.5 19 18.3 19ZM5.2 10.5C4.5 10.5 4 11 4 11.7V16.8C4 17.5 4.5 18 5.2 18H18.4C19.1 18 19.6 17.5 19.6 16.8V11.7C19.6 11 19.1 10.5 18.4 10.5H5.2Z" fill="#CD5D67"/>
</svg>
