<svg width="24" height="24" viewBox="0 0 24 24" fill="none" xmlns="http://www.w3.org/2000/svg">
<path d="M10.1 19.3H11.4V22H12.2V19.3H13.5L11.8 17.6L10.1 19.3Z" fill="#CD5D67"/>
<path d="M10.1 3.7H11.4V6.4H12.2V3.7H13.5L11.8 2L10.1 3.7Z" fill="#CD5D67"/>
<path d="M18.3 17H5.2C4 17 3 16 3 14.8V9.7C3 8.5 4 7.5 5.2 7.5H18.4C19.6 7.5 20.6 8.5 20.6 9.7V14.8C20.5 16 19.5 17 18.3 17ZM5.2 8.5C4.5 8.5 4 9 4 9.7V14.8C4 15.5 4.5 16 5.2 16H18.4C19.1 16 19.6 15.5 19.6 14.8V9.7C19.6 9 19.1 8.5 18.4 8.5H5.2Z" fill="#CD5D67"/>
</svg>
